<svg width="39" height="38" viewBox="0 0 39 38" fill="none" xmlns="http://www.w3.org/2000/svg">
<path d="M16.3334 3.1665V15.8332L21.0834 11.0832L25.8334 15.8332V3.1665M6.83337 30.8748V7.12484C6.83337 6.07502 7.25041 5.0682 7.99274 4.32587C8.73507 3.58354 9.74189 3.1665 10.7917 3.1665H30.5834C31.0033 3.1665 31.406 3.33332 31.703 3.63025C31.9999 3.92718 32.1667 4.32991 32.1667 4.74984V33.2498C32.1667 33.6698 31.9999 34.0725 31.703 34.3694C31.406 34.6664 31.0033 34.8332 30.5834 34.8332H10.7917C9.74189 34.8332 8.73507 34.4161 7.99274 33.6738C7.25041 32.9315 6.83337 31.9247 6.83337 30.8748ZM6.83337 30.8748C6.83337 29.825 7.25041 28.8182 7.99274 28.0759C8.73507 27.3335 9.74189 26.9165 10.7917 26.9165H32.1667" stroke="white" stroke-width="2" stroke-linecap="round" stroke-linejoin="round"/>
</svg>
