<svg width="28" height="28" viewBox="0 0 28 28" fill="none" xmlns="http://www.w3.org/2000/svg">
<g clip-path="url(#clip0_90_1361)">
<path d="M17.5817 1.17822H10.5817V3.51156H17.5817V1.17822ZM12.915 16.3449H15.2483V9.34489H12.915V16.3449ZM22.2833 8.62156L23.94 6.96489C23.4383 6.36989 22.89 5.80989 22.295 5.31989L20.6383 6.97656C18.83 5.52989 16.555 4.66656 14.0817 4.66656C8.28333 4.66656 3.58167 9.36822 3.58167 15.1666C3.58167 20.9649 8.27166 25.6666 14.0817 25.6666C19.8917 25.6666 24.5817 20.9649 24.5817 15.1666C24.5817 12.7049 23.7183 10.4299 22.2833 8.62156ZM14.0817 23.3449C9.56667 23.3449 5.915 19.6932 5.915 15.1782C5.915 10.6632 9.56667 7.01156 14.0817 7.01156C18.5967 7.01156 22.2483 10.6632 22.2483 15.1782C22.2483 19.6932 18.5967 23.3449 14.0817 23.3449Z" fill="white"/>
</g>
<defs>
<clipPath id="clip0_90_1361">
<rect width="28" height="28" fill="white"/>
</clipPath>
</defs>
</svg>
